<svg width="748" height="159" viewBox="0 0 748 159" fill="none" xmlns="http://www.w3.org/2000/svg">
    <mask id="path-1-inside-1_51_71" fill="white">
        <path
            d="M100.396 51.6452C100.853 46.6129 99.6335 42.6735 96.7361 39.827C93.8387 36.9296 88.959 35.4809 82.0968 35.4809C77.7253 35.4809 74.0655 35.9892 71.1173 37.0059C68.22 38.0225 65.958 39.4203 64.3314 41.1994C62.7556 42.9785 61.7644 45.0371 61.3578 47.3754C60.9003 49.2053 60.9257 50.8827 61.434 52.4076C61.9932 53.8817 63.0352 55.2287 64.5601 56.4487C66.1359 57.6686 68.1946 58.7615 70.7361 59.7273C73.3285 60.6931 76.4037 61.5572 79.9619 62.3197L92.1613 65.0645C100.498 66.8944 107.487 69.3089 113.129 72.3079C118.822 75.2561 123.295 78.7634 126.548 82.8299C129.802 86.8964 131.936 91.4457 132.953 96.478C134.021 101.51 134.046 107 133.029 112.947C131.301 123.215 127.311 131.907 121.059 139.023C114.806 146.14 106.648 151.553 96.5836 155.264C86.5191 158.975 74.8788 160.83 61.6628 160.83C48.1418 160.83 36.654 158.822 27.1994 154.806C17.7957 150.74 10.9844 144.539 6.76542 136.202C2.59729 127.815 1.58067 117.115 3.71557 104.103H43.9736C43.3637 108.881 43.872 112.896 45.4986 116.15C47.1251 119.403 49.7429 121.868 53.3519 123.545C56.9609 125.223 61.4595 126.062 66.8475 126.062C71.4223 126.062 75.3363 125.502 78.5895 124.384C81.8426 123.266 84.4096 121.716 86.2903 119.733C88.1711 117.751 89.3148 115.489 89.7214 112.947C90.1281 110.609 89.7214 108.525 88.5015 106.695C87.2816 104.865 85.0704 103.213 81.8681 101.739C78.6657 100.265 74.2688 98.9179 68.6774 97.6979L53.7332 94.3431C40.4663 91.2933 30.4526 86.261 23.6921 79.2463C16.9316 72.2317 14.5425 62.6246 16.5249 50.4252C18.1515 40.4624 22.2434 31.7703 28.8006 24.349C35.4086 16.8768 43.7957 11.0821 53.9619 6.96481C64.1789 2.79667 75.4888 0.712609 87.8915 0.712609C100.498 0.712609 111.045 2.82209 119.534 7.04106C128.073 11.26 134.198 17.1818 137.909 24.8065C141.671 32.4311 142.687 41.3773 140.959 51.6452H100.396ZM141.531 159L167.455 2.84751H209.848L199.478 65.9795H201.613L258.95 2.84751H308.358L244.311 72.3842L283.654 159H233.026L208.018 100.443L190.633 119.047L183.924 159H141.531ZM363.331 2.84751L337.408 159H295.015L320.938 2.84751H363.331ZM357.499 159L383.422 2.84751H425.815L405.686 124.842H468.818L463.023 159H357.499ZM480.16 159L506.084 2.84751H548.477L528.348 124.842H591.479L585.685 159H480.16ZM704.686 51.6452C705.144 46.6129 703.924 42.6735 701.026 39.827C698.129 36.9296 693.249 35.4809 686.387 35.4809C682.016 35.4809 678.356 35.9892 675.408 37.0059C672.51 38.0225 670.248 39.4203 668.622 41.1994C667.046 42.9785 666.055 45.0371 665.648 47.3754C665.191 49.2053 665.216 50.8827 665.724 52.4076C666.283 53.8817 667.325 55.2287 668.85 56.4487C670.426 57.6686 672.485 58.7615 675.026 59.7273C677.619 60.6931 680.694 61.5572 684.252 62.3197L696.452 65.0645C704.788 66.8944 711.777 69.3089 717.419 72.3079C723.112 75.2561 727.586 78.7634 730.839 82.8299C734.092 86.8964 736.227 91.4457 737.243 96.478C738.311 101.51 738.336 107 737.32 112.947C735.591 123.215 731.601 131.907 725.349 139.023C719.097 146.14 710.938 151.553 700.874 155.264C690.809 158.975 679.169 160.83 665.953 160.83C652.432 160.83 640.944 158.822 631.49 154.806C622.086 150.74 615.275 144.539 611.056 136.202C606.888 127.815 605.871 117.115 608.006 104.103H648.264C647.654 108.881 648.162 112.896 649.789 116.15C651.415 119.403 654.033 121.868 657.642 123.545C661.251 125.223 665.75 126.062 671.138 126.062C675.713 126.062 679.627 125.502 682.88 124.384C686.133 123.266 688.7 121.716 690.581 119.733C692.461 117.751 693.605 115.489 694.012 112.947C694.418 110.609 694.012 108.525 692.792 106.695C691.572 104.865 689.361 103.213 686.158 101.739C682.956 100.265 678.559 98.9179 672.968 97.6979L658.023 94.3431C644.757 91.2933 634.743 86.261 627.982 79.2463C621.222 72.2317 618.833 62.6246 620.815 50.4252C622.442 40.4624 626.534 31.7703 633.091 24.349C639.699 16.8768 648.086 11.0821 658.252 6.96481C668.469 2.79667 679.779 0.712609 692.182 0.712609C704.788 0.712609 715.335 2.82209 723.824 7.04106C732.364 11.26 738.489 17.1818 742.199 24.8065C745.961 32.4311 746.978 41.3773 745.249 51.6452H704.686Z" />
    </mask>
    <path
        d="M100.396 51.6452C100.853 46.6129 99.6335 42.6735 96.7361 39.827C93.8387 36.9296 88.959 35.4809 82.0968 35.4809C77.7253 35.4809 74.0655 35.9892 71.1173 37.0059C68.22 38.0225 65.958 39.4203 64.3314 41.1994C62.7556 42.9785 61.7644 45.0371 61.3578 47.3754C60.9003 49.2053 60.9257 50.8827 61.434 52.4076C61.9932 53.8817 63.0352 55.2287 64.5601 56.4487C66.1359 57.6686 68.1946 58.7615 70.7361 59.7273C73.3285 60.6931 76.4037 61.5572 79.9619 62.3197L92.1613 65.0645C100.498 66.8944 107.487 69.3089 113.129 72.3079C118.822 75.2561 123.295 78.7634 126.548 82.8299C129.802 86.8964 131.936 91.4457 132.953 96.478C134.021 101.51 134.046 107 133.029 112.947C131.301 123.215 127.311 131.907 121.059 139.023C114.806 146.14 106.648 151.553 96.5836 155.264C86.5191 158.975 74.8788 160.83 61.6628 160.83C48.1418 160.83 36.654 158.822 27.1994 154.806C17.7957 150.74 10.9844 144.539 6.76542 136.202C2.59729 127.815 1.58067 117.115 3.71557 104.103H43.9736C43.3637 108.881 43.872 112.896 45.4986 116.15C47.1251 119.403 49.7429 121.868 53.3519 123.545C56.9609 125.223 61.4595 126.062 66.8475 126.062C71.4223 126.062 75.3363 125.502 78.5895 124.384C81.8426 123.266 84.4096 121.716 86.2903 119.733C88.1711 117.751 89.3148 115.489 89.7214 112.947C90.1281 110.609 89.7214 108.525 88.5015 106.695C87.2816 104.865 85.0704 103.213 81.8681 101.739C78.6657 100.265 74.2688 98.9179 68.6774 97.6979L53.7332 94.3431C40.4663 91.2933 30.4526 86.261 23.6921 79.2463C16.9316 72.2317 14.5425 62.6246 16.5249 50.4252C18.1515 40.4624 22.2434 31.7703 28.8006 24.349C35.4086 16.8768 43.7957 11.0821 53.9619 6.96481C64.1789 2.79667 75.4888 0.712609 87.8915 0.712609C100.498 0.712609 111.045 2.82209 119.534 7.04106C128.073 11.26 134.198 17.1818 137.909 24.8065C141.671 32.4311 142.687 41.3773 140.959 51.6452H100.396ZM141.531 159L167.455 2.84751H209.848L199.478 65.9795H201.613L258.95 2.84751H308.358L244.311 72.3842L283.654 159H233.026L208.018 100.443L190.633 119.047L183.924 159H141.531ZM363.331 2.84751L337.408 159H295.015L320.938 2.84751H363.331ZM357.499 159L383.422 2.84751H425.815L405.686 124.842H468.818L463.023 159H357.499ZM480.16 159L506.084 2.84751H548.477L528.348 124.842H591.479L585.685 159H480.16ZM704.686 51.6452C705.144 46.6129 703.924 42.6735 701.026 39.827C698.129 36.9296 693.249 35.4809 686.387 35.4809C682.016 35.4809 678.356 35.9892 675.408 37.0059C672.51 38.0225 670.248 39.4203 668.622 41.1994C667.046 42.9785 666.055 45.0371 665.648 47.3754C665.191 49.2053 665.216 50.8827 665.724 52.4076C666.283 53.8817 667.325 55.2287 668.85 56.4487C670.426 57.6686 672.485 58.7615 675.026 59.7273C677.619 60.6931 680.694 61.5572 684.252 62.3197L696.452 65.0645C704.788 66.8944 711.777 69.3089 717.419 72.3079C723.112 75.2561 727.586 78.7634 730.839 82.8299C734.092 86.8964 736.227 91.4457 737.243 96.478C738.311 101.51 738.336 107 737.32 112.947C735.591 123.215 731.601 131.907 725.349 139.023C719.097 146.14 710.938 151.553 700.874 155.264C690.809 158.975 679.169 160.83 665.953 160.83C652.432 160.83 640.944 158.822 631.49 154.806C622.086 150.74 615.275 144.539 611.056 136.202C606.888 127.815 605.871 117.115 608.006 104.103H648.264C647.654 108.881 648.162 112.896 649.789 116.15C651.415 119.403 654.033 121.868 657.642 123.545C661.251 125.223 665.75 126.062 671.138 126.062C675.713 126.062 679.627 125.502 682.88 124.384C686.133 123.266 688.7 121.716 690.581 119.733C692.461 117.751 693.605 115.489 694.012 112.947C694.418 110.609 694.012 108.525 692.792 106.695C691.572 104.865 689.361 103.213 686.158 101.739C682.956 100.265 678.559 98.9179 672.968 97.6979L658.023 94.3431C644.757 91.2933 634.743 86.261 627.982 79.2463C621.222 72.2317 618.833 62.6246 620.815 50.4252C622.442 40.4624 626.534 31.7703 633.091 24.349C639.699 16.8768 648.086 11.0821 658.252 6.96481C668.469 2.79667 679.779 0.712609 692.182 0.712609C704.788 0.712609 715.335 2.82209 723.824 7.04106C732.364 11.26 738.489 17.1818 742.199 24.8065C745.961 32.4311 746.978 41.3773 745.249 51.6452H704.686Z"
        fill="#FFF6ED" />
    <path
        d="M100.396 51.6452L95.3843 51.1896L94.8854 56.6774H100.396V51.6452ZM96.7361 39.827L93.1778 43.3853L93.1935 43.4011L93.2094 43.4167L96.7361 39.827ZM71.1173 37.0059L69.4769 32.2485L69.464 32.2529L69.4512 32.2574L71.1173 37.0059ZM64.3314 41.1994L60.6174 37.8038L60.5906 37.8331L60.5643 37.8628L64.3314 41.1994ZM61.3578 47.3754L66.2398 48.5959L66.2842 48.4181L66.3156 48.2376L61.3578 47.3754ZM61.434 52.4076L56.66 53.999L56.6925 54.0964L56.7289 54.1923L61.434 52.4076ZM64.5601 56.4487L61.4165 60.3782L61.4478 60.4033L61.4795 60.4278L64.5601 56.4487ZM70.7361 59.7273L68.9486 64.4313L68.9639 64.4372L68.9793 64.4429L70.7361 59.7273ZM79.9619 62.3197L81.0665 57.4101L81.0415 57.4045L81.0163 57.3991L79.9619 62.3197ZM92.1613 65.0645L91.0567 69.974L91.0695 69.9769L91.0824 69.9797L92.1613 65.0645ZM113.129 72.3079L110.767 76.7515L110.791 76.7641L110.815 76.7765L113.129 72.3079ZM126.548 82.8299L122.619 85.9735L122.619 85.9735L126.548 82.8299ZM132.953 96.478L128.02 97.4745L128.025 97.4984L128.03 97.5222L132.953 96.478ZM133.029 112.947L128.069 112.099L128.067 112.112L133.029 112.947ZM121.059 139.023L117.278 135.702L117.278 135.702L121.059 139.023ZM96.5836 155.264L94.8428 150.542L94.8428 150.542L96.5836 155.264ZM27.1994 154.806L25.2021 159.425L25.2171 159.432L25.2322 159.438L27.1994 154.806ZM6.76542 136.202L2.25898 138.442L2.26715 138.458L2.27544 138.475L6.76542 136.202ZM3.71557 104.103V99.0704H-0.558362L-1.2503 103.288L3.71557 104.103ZM43.9736 104.103L48.9654 104.74L49.6891 99.0704H43.9736V104.103ZM45.4986 116.15L49.9995 113.899L49.9995 113.899L45.4986 116.15ZM53.3519 123.545L51.2309 128.109L51.2309 128.109L53.3519 123.545ZM86.2903 119.733L82.6396 116.27L82.6396 116.27L86.2903 119.733ZM89.7214 112.947L84.7636 112.085L84.7578 112.119L84.7524 112.152L89.7214 112.947ZM88.5015 106.695L84.3144 109.486L88.5015 106.695ZM81.8681 101.739L79.7638 106.31L79.7639 106.31L81.8681 101.739ZM68.6774 97.6979L67.5752 102.608L67.5899 102.611L67.6047 102.615L68.6774 97.6979ZM53.7332 94.3431L52.6057 99.2474L52.6183 99.2503L52.6309 99.2532L53.7332 94.3431ZM16.5249 50.4252L11.5584 49.6144L11.5578 49.6181L16.5249 50.4252ZM28.8006 24.349L25.031 21.0153L25.0295 21.017L28.8006 24.349ZM53.9619 6.96481L55.8509 11.6291L55.8628 11.6242L53.9619 6.96481ZM119.534 7.04106L117.294 11.5474L117.305 11.5527L119.534 7.04106ZM137.909 24.8065L133.384 27.0086L133.39 27.0207L133.396 27.0329L137.909 24.8065ZM140.959 51.6452V56.6774H145.215L145.921 52.4804L140.959 51.6452ZM100.396 51.6452L105.408 52.1008C105.965 45.9668 104.494 40.3946 100.263 36.2373L96.7361 39.827L93.2094 43.4167C94.7725 44.9524 95.7417 47.259 95.3843 51.1896L100.396 51.6452ZM96.7361 39.827L100.294 36.2686C95.9868 31.961 89.4439 30.4487 82.0968 30.4487V35.4809V40.5132C88.474 40.5132 91.6907 41.8982 93.1778 43.3853L96.7361 39.827ZM82.0968 35.4809V30.4487C77.3736 30.4487 73.118 30.9929 69.4769 32.2485L71.1173 37.0059L72.7578 41.7632C75.0131 40.9855 78.0771 40.5132 82.0968 40.5132V35.4809ZM71.1173 37.0059L69.4512 32.2574C65.9795 33.4756 62.9373 35.2665 60.6174 37.8038L64.3314 41.1994L68.0454 44.595C68.9787 43.5742 70.4604 42.5694 72.7834 41.7543L71.1173 37.0059ZM64.3314 41.1994L60.5643 37.8628C58.3708 40.3394 56.9667 43.2544 56.4 46.5131L61.3578 47.3754L66.3156 48.2376C66.5622 46.8199 67.1405 45.6176 68.0985 44.536L64.3314 41.1994ZM61.3578 47.3754L56.4758 46.1549C55.8271 48.7495 55.7998 51.4182 56.66 53.999L61.434 52.4076L66.2081 50.8163C66.0517 50.3472 65.9735 49.6611 66.2398 48.5959L61.3578 47.3754ZM61.434 52.4076L56.7289 54.1923C57.6753 56.6875 59.3552 58.7292 61.4165 60.3782L64.5601 56.4487L67.7038 52.5192C66.7152 51.7283 66.311 51.076 66.1392 50.6229L61.434 52.4076ZM64.5601 56.4487L61.4795 60.4278C63.5617 62.0398 66.0992 63.3486 68.9486 64.4313L70.7361 59.7273L72.5236 55.0232C70.2899 54.1744 68.7101 53.2974 67.6408 52.4696L64.5601 56.4487ZM70.7361 59.7273L68.9793 64.4429C71.8588 65.5157 75.1803 66.4415 78.9075 67.2402L79.9619 62.3197L81.0163 57.3991C77.6272 56.6729 74.7981 55.8704 72.4929 55.0116L70.7361 59.7273ZM79.9619 62.3197L78.8573 67.2292L91.0567 69.974L92.1613 65.0645L93.266 60.155L81.0665 57.4101L79.9619 62.3197ZM92.1613 65.0645L91.0824 69.9797C99.1112 71.7422 105.638 74.0254 110.767 76.7515L113.129 72.3079L115.491 67.8644C109.335 64.5924 101.884 62.0467 93.2403 60.1493L92.1613 65.0645ZM113.129 72.3079L110.815 76.7765C116.024 79.4738 119.895 82.5685 122.619 85.9735L126.548 82.8299L130.478 79.6863C126.696 74.9584 121.621 71.0384 115.443 67.8393L113.129 72.3079ZM126.548 82.8299L122.619 85.9735C125.379 89.4237 127.165 93.2392 128.02 97.4745L132.953 96.478L137.886 95.4815C136.708 89.6523 134.224 84.3691 130.478 79.6863L126.548 82.8299ZM132.953 96.478L128.03 97.5222C128.945 101.834 128.997 106.673 128.069 112.099L133.029 112.947L137.99 113.795C139.095 107.327 139.096 101.186 137.876 95.4338L132.953 96.478ZM133.029 112.947L128.067 112.112C126.478 121.552 122.853 129.357 117.278 135.702L121.059 139.023L124.839 142.345C131.769 134.457 136.124 124.878 137.992 113.782L133.029 112.947ZM121.059 139.023L117.278 135.702C111.648 142.11 104.227 147.083 94.8428 150.542L96.5836 155.264L98.3244 159.986C109.069 156.024 117.964 150.17 124.839 142.345L121.059 139.023ZM96.5836 155.264L94.8428 150.542C85.4481 154.006 74.4178 155.798 61.6628 155.798V160.83V165.862C75.3398 165.862 87.59 163.943 98.3244 159.986L96.5836 155.264ZM61.6628 160.83V155.798C48.6145 155.798 37.8359 153.857 29.1667 150.175L27.1994 154.806L25.2322 159.438C35.4721 163.787 47.669 165.862 61.6628 165.862V160.83ZM27.1994 154.806L29.1968 150.188C20.761 146.54 14.8908 141.113 11.2554 133.93L6.76542 136.202L2.27544 138.475C7.07795 147.964 14.8304 154.94 25.2021 159.425L27.1994 154.806ZM6.76542 136.202L11.2719 133.963C7.7299 126.836 6.64981 117.301 8.68144 104.917L3.71557 104.103L-1.2503 103.288C-3.48847 116.93 -2.53533 128.795 2.25898 138.442L6.76542 136.202ZM3.71557 104.103V109.135H43.9736V104.103V99.0704H3.71557V104.103ZM43.9736 104.103L38.9819 103.465C38.2858 108.918 38.8009 114.007 40.9976 118.4L45.4986 116.15L49.9995 113.899C48.943 111.786 48.4415 108.844 48.9654 104.74L43.9736 104.103ZM45.4986 116.15L40.9976 118.4C43.1819 122.769 46.6934 126 51.2309 128.109L53.3519 123.545L55.473 118.982C52.7925 117.736 51.0684 116.037 49.9995 113.899L45.4986 116.15ZM53.3519 123.545L51.2309 128.109C55.6957 130.184 60.9721 131.094 66.8475 131.094V126.062V121.029C61.9468 121.029 58.2261 120.262 55.473 118.982L53.3519 123.545ZM66.8475 126.062V131.094C71.8067 131.094 76.3044 130.491 80.2254 129.143L78.5895 124.384L76.9536 119.625C74.3682 120.514 71.0379 121.029 66.8475 121.029V126.062ZM78.5895 124.384L80.2254 129.143C84.0507 127.828 87.3769 125.899 89.9411 123.197L86.2903 119.733L82.6396 116.27C81.4423 117.532 79.6346 118.704 76.9536 119.625L78.5895 124.384ZM86.2903 119.733L89.9411 123.197C92.4748 120.526 94.1134 117.349 94.6905 113.742L89.7214 112.947L84.7524 112.152C84.5162 113.628 83.8673 114.976 82.6396 116.27L86.2903 119.733ZM89.7214 112.947L94.6793 113.809C95.2879 110.31 94.6843 106.897 92.6886 103.904L88.5015 106.695L84.3144 109.486C84.7586 110.153 84.9683 110.908 84.7636 112.085L89.7214 112.947ZM88.5015 106.695L92.6886 103.904C90.7287 100.964 87.558 98.8184 83.9723 97.1678L81.8681 101.739L79.7639 106.31C82.5828 107.608 83.8345 108.766 84.3144 109.486L88.5015 106.695ZM81.8681 101.739L83.9723 97.1678C80.3001 95.4774 75.5063 94.0372 69.7502 92.7814L68.6774 97.6979L67.6047 102.615C73.0313 103.799 77.0314 105.052 79.7638 106.31L81.8681 101.739ZM68.6774 97.6979L69.7797 92.7879L54.8354 89.4331L53.7332 94.3431L52.6309 99.2532L67.5752 102.608L68.6774 97.6979ZM53.7332 94.3431L54.8606 89.4388C42.1816 86.5241 33.1794 81.8386 27.3155 75.7542L23.6921 79.2463L20.0687 82.7384C27.7259 90.6834 38.751 96.0625 52.6057 99.2474L53.7332 94.3431ZM23.6921 79.2463L27.3155 75.7542C21.9449 70.1817 19.6885 62.3311 21.4921 51.2324L16.5249 50.4252L11.5578 49.6181C9.39658 62.9182 11.9183 74.2816 20.0687 82.7384L23.6921 79.2463ZM16.5249 50.4252L21.4915 51.2361C22.9683 42.1903 26.6554 34.377 32.5717 27.681L28.8006 24.349L25.0295 21.017C17.8315 29.1636 13.3348 38.7344 11.5584 49.6144L16.5249 50.4252ZM28.8006 24.349L32.5702 27.6827C38.613 20.8497 46.3331 15.4838 55.8509 11.6291L53.9619 6.96481L52.0729 2.30056C41.2583 6.68045 32.2043 12.904 25.031 21.0153L28.8006 24.349ZM53.9619 6.96481L55.8628 11.6242C65.4059 7.73102 76.06 5.74487 87.8915 5.74487V0.712609V-4.31965C74.9176 -4.31965 62.9519 -2.13767 52.061 2.30537L53.9619 6.96481ZM87.8915 0.712609V5.74487C99.9656 5.74487 109.692 7.76905 117.294 11.5474L119.534 7.04106L121.773 2.53468C112.398 -2.12487 101.03 -4.31965 87.8915 -4.31965V0.712609ZM119.534 7.04106L117.305 11.5527C124.974 15.3417 130.222 20.5099 133.384 27.0086L137.909 24.8065L142.434 22.6044C138.175 13.8538 131.173 7.1783 121.763 2.52938L119.534 7.04106ZM137.909 24.8065L133.396 27.0329C136.593 33.5136 137.589 41.3462 135.997 50.8099L140.959 51.6452L145.921 52.4804C147.785 41.4084 146.748 31.3485 142.422 22.5801L137.909 24.8065ZM140.959 51.6452V46.6129H100.396V51.6452V56.6774H140.959V51.6452ZM141.531 159L136.567 158.176L135.594 164.032H141.531V159ZM167.455 2.84751V-2.18475H163.189L162.49 2.02335L167.455 2.84751ZM209.848 2.84751L214.813 3.66313L215.774 -2.18475H209.848V2.84751ZM199.478 65.9795L194.512 65.1638L193.552 71.0117H199.478V65.9795ZM201.613 65.9795V71.0117H203.84L205.338 69.3627L201.613 65.9795ZM258.95 2.84751V-2.18475H256.723L255.225 -0.535764L258.95 2.84751ZM308.358 2.84751L312.059 6.25674L319.834 -2.18475H308.358V2.84751ZM244.311 72.3842L240.609 68.9749L238.35 71.4284L239.729 74.4653L244.311 72.3842ZM283.654 159V164.032H291.467L288.236 156.919L283.654 159ZM233.026 159L228.399 160.976L229.704 164.032H233.026V159ZM208.018 100.443L212.645 98.4663L209.613 91.3652L204.341 97.0071L208.018 100.443ZM190.633 119.047L186.957 115.611L185.922 116.719L185.671 118.213L190.633 119.047ZM183.924 159V164.032H188.181L188.887 159.833L183.924 159ZM141.531 159L146.495 159.824L172.419 3.67166L167.455 2.84751L162.49 2.02335L136.567 158.176L141.531 159ZM167.455 2.84751V7.87977H209.848V2.84751V-2.18475H167.455V2.84751ZM209.848 2.84751L204.882 2.03188L194.512 65.1638L199.478 65.9795L204.444 66.7951L214.813 3.66313L209.848 2.84751ZM199.478 65.9795V71.0117H201.613V65.9795V60.9472H199.478V65.9795ZM201.613 65.9795L205.338 69.3627L262.675 6.23078L258.95 2.84751L255.225 -0.535764L197.888 62.5962L201.613 65.9795ZM258.95 2.84751V7.87977H308.358V2.84751V-2.18475H258.95V2.84751ZM308.358 2.84751L304.656 -0.561725L240.609 68.9749L244.311 72.3842L248.012 75.7934L312.059 6.25674L308.358 2.84751ZM244.311 72.3842L239.729 74.4653L279.072 161.081L283.654 159L288.236 156.919L248.893 70.303L244.311 72.3842ZM283.654 159V153.968H233.026V159V164.032H283.654V159ZM233.026 159L237.654 157.024L212.645 98.4663L208.018 100.443L203.39 102.419L228.399 160.976L233.026 159ZM208.018 100.443L204.341 97.0071L186.957 115.611L190.633 119.047L194.31 122.483L211.694 103.879L208.018 100.443ZM190.633 119.047L185.671 118.213L178.961 158.167L183.924 159L188.887 159.833L195.596 119.88L190.633 119.047ZM183.924 159V153.968H141.531V159V164.032H183.924V159ZM363.331 2.84751L368.296 3.67166L369.268 -2.18475H363.331V2.84751ZM337.408 159V164.032H341.673L342.372 159.824L337.408 159ZM295.015 159L290.05 158.176L289.078 164.032H295.015V159ZM320.938 2.84751V-2.18475H316.673L315.974 2.02335L320.938 2.84751ZM363.331 2.84751L358.367 2.02335L332.443 158.176L337.408 159L342.372 159.824L368.296 3.67166L363.331 2.84751ZM337.408 159V153.968H295.015V159V164.032H337.408V159ZM295.015 159L299.979 159.824L325.903 3.67166L320.938 2.84751L315.974 2.02335L290.05 158.176L295.015 159ZM320.938 2.84751V7.87977H363.331V2.84751V-2.18475H320.938V2.84751ZM357.499 159L352.534 158.176L351.562 164.032H357.499V159ZM383.422 2.84751V-2.18475H379.157L378.458 2.02335L383.422 2.84751ZM425.815 2.84751L430.78 3.66675L431.746 -2.18475H425.815V2.84751ZM405.686 124.842L400.721 124.022L399.756 129.874H405.686V124.842ZM468.818 124.842L473.78 125.683L474.776 119.809H468.818V124.842ZM463.023 159V164.032H467.274L467.985 159.842L463.023 159ZM357.499 159L362.463 159.824L388.387 3.67166L383.422 2.84751L378.458 2.02335L352.534 158.176L357.499 159ZM383.422 2.84751V7.87977H425.815V2.84751V-2.18475H383.422V2.84751ZM425.815 2.84751L420.85 2.02826L400.721 124.022L405.686 124.842L410.651 125.661L430.78 3.66675L425.815 2.84751ZM405.686 124.842V129.874H468.818V124.842V119.809H405.686V124.842ZM468.818 124.842L463.857 124L458.062 158.158L463.023 159L467.985 159.842L473.78 125.683L468.818 124.842ZM463.023 159V153.968H357.499V159V164.032H463.023V159ZM480.16 159L475.196 158.176L474.223 164.032H480.16V159ZM506.084 2.84751V-2.18475H501.818L501.119 2.02335L506.084 2.84751ZM548.477 2.84751L553.442 3.66675L554.407 -2.18475H548.477V2.84751ZM528.348 124.842L523.382 124.022L522.417 129.874H528.348V124.842ZM591.479 124.842L596.441 125.683L597.437 119.809H591.479V124.842ZM585.685 159V164.032H589.935L590.646 159.842L585.685 159ZM480.16 159L485.124 159.824L511.048 3.67166L506.084 2.84751L501.119 2.02335L475.196 158.176L480.16 159ZM506.084 2.84751V7.87977H548.477V2.84751V-2.18475H506.084V2.84751ZM548.477 2.84751L543.511 2.02826L523.382 124.022L528.348 124.842L533.313 125.661L553.442 3.66675L548.477 2.84751ZM528.348 124.842V129.874H591.479V124.842V119.809H528.348V124.842ZM591.479 124.842L586.518 124L580.723 158.158L585.685 159L590.646 159.842L596.441 125.683L591.479 124.842ZM585.685 159V153.968H480.16V159V164.032H585.685V159ZM704.686 51.6452L699.675 51.1896L699.176 56.6774H704.686V51.6452ZM701.026 39.827L697.468 43.3853L697.484 43.4011L697.5 43.4167L701.026 39.827ZM675.408 37.0059L673.767 32.2485L673.754 32.2529L673.741 32.2574L675.408 37.0059ZM668.622 41.1994L664.908 37.8038L664.881 37.8331L664.855 37.8628L668.622 41.1994ZM665.648 47.3754L670.53 48.5959L670.575 48.4181L670.606 48.2376L665.648 47.3754ZM665.724 52.4076L660.95 53.999L660.983 54.0964L661.019 54.1923L665.724 52.4076ZM668.85 56.4487L665.707 60.3782L665.738 60.4033L665.77 60.4278L668.85 56.4487ZM675.026 59.7273L673.239 64.4313L673.254 64.4372L673.27 64.4429L675.026 59.7273ZM684.252 62.3197L685.357 57.4101L685.332 57.4045L685.307 57.3991L684.252 62.3197ZM696.452 65.0645L695.347 69.974L695.36 69.9769L695.373 69.9797L696.452 65.0645ZM717.419 72.3079L715.057 76.7515L715.081 76.7641L715.105 76.7765L717.419 72.3079ZM730.839 82.8299L726.909 85.9735L726.909 85.9735L730.839 82.8299ZM737.243 96.478L732.311 97.4745L732.316 97.4984L732.321 97.5222L737.243 96.478ZM737.32 112.947L732.359 112.099L732.357 112.112L737.32 112.947ZM725.349 139.023L721.568 135.702L721.568 135.702L725.349 139.023ZM700.874 155.264L699.133 150.542L699.133 150.542L700.874 155.264ZM631.49 154.806L629.492 159.425L629.507 159.432L629.522 159.438L631.49 154.806ZM611.056 136.202L606.549 138.442L606.557 138.458L606.566 138.475L611.056 136.202ZM608.006 104.103V99.0704H603.732L603.04 103.288L608.006 104.103ZM648.264 104.103L653.256 104.74L653.979 99.0704H648.264V104.103ZM649.789 116.15L654.29 113.899L654.29 113.899L649.789 116.15ZM657.642 123.545L655.521 128.109L655.521 128.109L657.642 123.545ZM690.581 119.733L686.93 116.27L686.93 116.27L690.581 119.733ZM694.012 112.947L689.054 112.085L689.048 112.119L689.043 112.152L694.012 112.947ZM692.792 106.695L688.605 109.486L692.792 106.695ZM686.158 101.739L684.054 106.31L684.054 106.31L686.158 101.739ZM672.968 97.6979L671.865 102.608L671.88 102.611L671.895 102.615L672.968 97.6979ZM658.023 94.3431L656.896 99.2474L656.909 99.2503L656.921 99.2532L658.023 94.3431ZM620.815 50.4252L615.849 49.6144L615.848 49.6181L620.815 50.4252ZM633.091 24.349L629.321 21.0153L629.32 21.017L633.091 24.349ZM658.252 6.96481L660.141 11.6291L660.153 11.6242L658.252 6.96481ZM723.824 7.04106L721.584 11.5474L721.595 11.5527L723.824 7.04106ZM742.199 24.8065L737.675 27.0086L737.68 27.0207L737.686 27.0329L742.199 24.8065ZM745.249 51.6452V56.6774H749.505L750.212 52.4804L745.249 51.6452ZM704.686 51.6452L709.698 52.1008C710.255 45.9668 708.785 40.3946 704.553 36.2373L701.026 39.827L697.5 43.4167C699.063 44.9524 700.032 47.259 699.675 51.1896L704.686 51.6452ZM701.026 39.827L704.585 36.2686C700.277 31.961 693.734 30.4487 686.387 30.4487V35.4809V40.5132C692.764 40.5132 695.981 41.8982 697.468 43.3853L701.026 39.827ZM686.387 35.4809V30.4487C681.664 30.4487 677.408 30.9929 673.767 32.2485L675.408 37.0059L677.048 41.7632C679.303 40.9855 682.367 40.5132 686.387 40.5132V35.4809ZM675.408 37.0059L673.741 32.2574C670.27 33.4756 667.228 35.2665 664.908 37.8038L668.622 41.1994L672.336 44.595C673.269 43.5742 674.751 42.5694 677.074 41.7543L675.408 37.0059ZM668.622 41.1994L664.855 37.8628C662.661 40.3394 661.257 43.2544 660.69 46.5131L665.648 47.3754L670.606 48.2376C670.852 46.8199 671.431 45.6176 672.389 44.536L668.622 41.1994ZM665.648 47.3754L660.766 46.1549C660.117 48.7495 660.09 51.4182 660.95 53.999L665.724 52.4076L670.498 50.8163C670.342 50.3472 670.264 49.6611 670.53 48.5959L665.648 47.3754ZM665.724 52.4076L661.019 54.1923C661.966 56.6875 663.645 58.7292 665.707 60.3782L668.85 56.4487L671.994 52.5192C671.006 51.7283 670.601 51.076 670.429 50.6229L665.724 52.4076ZM668.85 56.4487L665.77 60.4278C667.852 62.0398 670.39 63.3486 673.239 64.4313L675.026 59.7273L676.814 55.0232C674.58 54.1744 673 53.2974 671.931 52.4696L668.85 56.4487ZM675.026 59.7273L673.27 64.4429C676.149 65.5157 679.471 66.4415 683.198 67.2402L684.252 62.3197L685.307 57.3991C681.917 56.6729 679.088 55.8704 676.783 55.0116L675.026 59.7273ZM684.252 62.3197L683.148 67.2292L695.347 69.974L696.452 65.0645L697.556 60.155L685.357 57.4101L684.252 62.3197ZM696.452 65.0645L695.373 69.9797C703.401 71.7422 709.929 74.0254 715.057 76.7515L717.419 72.3079L719.781 67.8644C713.625 64.5924 706.174 62.0467 697.531 60.1493L696.452 65.0645ZM717.419 72.3079L715.105 76.7765C720.314 79.4738 724.185 82.5685 726.909 85.9735L730.839 82.8299L734.768 79.6863C730.986 74.9584 725.911 71.0384 719.733 67.8393L717.419 72.3079ZM730.839 82.8299L726.909 85.9735C729.669 89.4237 731.455 93.2392 732.311 97.4745L737.243 96.478L742.176 95.4815C740.998 89.6523 738.514 84.3691 734.768 79.6863L730.839 82.8299ZM737.243 96.478L732.321 97.5222C733.235 101.834 733.287 106.673 732.359 112.099L737.32 112.947L742.28 113.795C743.386 107.327 743.386 101.186 742.166 95.4338L737.243 96.478ZM737.32 112.947L732.357 112.112C730.768 121.552 727.143 129.357 721.568 135.702L725.349 139.023L729.129 142.345C736.059 134.457 740.414 124.878 742.282 113.782L737.32 112.947ZM725.349 139.023L721.568 135.702C715.939 142.11 708.517 147.083 699.133 150.542L700.874 155.264L702.615 159.986C713.36 156.024 722.255 150.17 729.129 142.345L725.349 139.023ZM700.874 155.264L699.133 150.542C689.738 154.006 678.708 155.798 665.953 155.798V160.83V165.862C679.63 165.862 691.88 163.943 702.615 159.986L700.874 155.264ZM665.953 160.83V155.798C652.905 155.798 642.126 153.857 633.457 150.175L631.49 154.806L629.522 159.438C639.762 163.787 651.959 165.862 665.953 165.862V160.83ZM631.49 154.806L633.487 150.188C625.051 146.54 619.181 141.113 615.546 133.93L611.056 136.202L606.566 138.475C611.368 147.964 619.121 154.94 629.492 159.425L631.49 154.806ZM611.056 136.202L615.562 133.963C612.02 126.836 610.94 117.301 612.972 104.917L608.006 104.103L603.04 103.288C600.802 116.93 601.755 128.795 606.549 138.442L611.056 136.202ZM608.006 104.103V109.135H648.264V104.103V99.0704H608.006V104.103ZM648.264 104.103L643.272 103.465C642.576 108.918 643.091 114.007 645.288 118.4L649.789 116.15L654.29 113.899C653.233 111.786 652.732 108.844 653.256 104.74L648.264 104.103ZM649.789 116.15L645.288 118.4C647.472 122.769 650.984 126 655.521 128.109L657.642 123.545L659.763 118.982C657.083 117.736 655.359 116.037 654.29 113.899L649.789 116.15ZM657.642 123.545L655.521 128.109C659.986 130.184 665.262 131.094 671.138 131.094V126.062V121.029C666.237 121.029 662.516 120.262 659.763 118.982L657.642 123.545ZM671.138 126.062V131.094C676.097 131.094 680.595 130.491 684.516 129.143L682.88 124.384L681.244 119.625C678.658 120.514 675.328 121.029 671.138 121.029V126.062ZM682.88 124.384L684.516 129.143C688.341 127.828 691.667 125.899 694.231 123.197L690.581 119.733L686.93 116.27C685.733 117.532 683.925 118.704 681.244 119.625L682.88 124.384ZM690.581 119.733L694.231 123.197C696.765 120.526 698.404 117.349 698.981 113.742L694.012 112.947L689.043 112.152C688.806 113.628 688.158 114.976 686.93 116.27L690.581 119.733ZM694.012 112.947L698.97 113.809C699.578 110.31 698.975 106.897 696.979 103.904L692.792 106.695L688.605 109.486C689.049 110.153 689.259 110.908 689.054 112.085L694.012 112.947ZM692.792 106.695L696.979 103.904C695.019 100.964 691.848 98.8184 688.263 97.1678L686.158 101.739L684.054 106.31C686.873 107.608 688.125 108.766 688.605 109.486L692.792 106.695ZM686.158 101.739L688.263 97.1678C684.59 95.4774 679.797 94.0372 674.04 92.7814L672.968 97.6979L671.895 102.615C677.322 103.799 681.322 105.052 684.054 106.31L686.158 101.739ZM672.968 97.6979L674.07 92.7879L659.126 89.4331L658.023 94.3431L656.921 99.2532L671.865 102.608L672.968 97.6979ZM658.023 94.3431L659.151 89.4388C646.472 86.5241 637.47 81.8386 631.606 75.7542L627.982 79.2463L624.359 82.7384C632.016 90.6834 643.041 96.0625 656.896 99.2474L658.023 94.3431ZM627.982 79.2463L631.606 75.7542C626.235 70.1817 623.979 62.3311 625.782 51.2324L620.815 50.4252L615.848 49.6181C613.687 62.9182 616.209 74.2816 624.359 82.7384L627.982 79.2463ZM620.815 50.4252L625.782 51.2361C627.259 42.1903 630.946 34.377 636.862 27.681L633.091 24.349L629.32 21.017C622.122 29.1636 617.625 38.7344 615.849 49.6144L620.815 50.4252ZM633.091 24.349L636.861 27.6827C642.903 20.8497 650.623 15.4838 660.141 11.6291L658.252 6.96481L656.363 2.30056C645.549 6.68045 636.495 12.904 629.321 21.0153L633.091 24.349ZM658.252 6.96481L660.153 11.6242C669.696 7.73102 680.35 5.74487 692.182 5.74487V0.712609V-4.31965C679.208 -4.31965 667.242 -2.13767 656.351 2.30537L658.252 6.96481ZM692.182 0.712609V5.74487C704.256 5.74487 713.982 7.76905 721.584 11.5474L723.824 7.04106L726.064 2.53468C716.688 -2.12487 705.32 -4.31965 692.182 -4.31965V0.712609ZM723.824 7.04106L721.595 11.5527C729.264 15.3417 734.512 20.5099 737.675 27.0086L742.199 24.8065L746.724 22.6044C742.466 13.8538 735.463 7.1783 726.053 2.52938L723.824 7.04106ZM742.199 24.8065L737.686 27.0329C740.884 33.5136 741.88 41.3462 740.287 50.8099L745.249 51.6452L750.212 52.4804C752.075 41.4084 751.038 31.3485 746.712 22.5801L742.199 24.8065ZM745.249 51.6452V46.6129H704.686V51.6452V56.6774H745.249V51.6452Z"
        fill="#FFB18C" fill-opacity="0.6" mask="url(#path-1-inside-1_51_71)" />
</svg>
